<?xml version="1.0" encoding="UTF-8"?>
<svg version="1.1" xmlns="http://www.w3.org/2000/svg" width="512" height="512">
<path d="M0 0 C1.14436272 -0.0063446 1.14436272 -0.0063446 2.31184387 -0.01281738 C4.77863839 -0.0192037 7.24426085 -0.00039051 9.7109375 0.0234375 C10.55117462 0.02809021 11.39141174 0.03274292 12.2571106 0.03753662 C24.43134628 0.11703351 36.21133656 0.50073286 48.0859375 3.3984375 C49.36815186 3.69645264 49.36815186 3.69645264 50.67626953 4.00048828 C82.71491418 11.57470301 111.21940344 26.92638269 136.0859375 48.3984375 C136.87742187 49.0790625 137.66890625 49.7596875 138.484375 50.4609375 C149.59945372 60.24508446 160.01363029 70.68419468 169.0859375 82.3984375 C170.26542969 83.86990234 170.26542969 83.86990234 171.46875 85.37109375 C208.606578 132.05529971 233.79084863 195.46552161 234.32421875 255.3046875 C234.3340126 256.21931259 234.34380646 257.13393768 234.35389709 258.07627869 C234.52188934 277.82399199 234.57235388 297.05564155 230.0859375 316.3984375 C229.86631348 317.35105469 229.64668945 318.30367188 229.42041016 319.28515625 C221.20573497 353.74842199 205.93674357 386.21483896 183.0859375 413.3984375 C182.14427814 414.54406284 181.20287632 415.6898999 180.26171875 416.8359375 C169.71267912 429.53950844 158.17490743 441.30615279 145.0859375 451.3984375 C143.84563683 452.38972813 142.60610873 453.38198587 141.3671875 454.375 C103.13013788 484.69666374 57.33028573 502.96890202 9.0859375 509.3984375 C8.35528076 509.5015625 7.62462402 509.6046875 6.87182617 509.7109375 C-2.22928662 510.82046687 -11.44769976 510.64238919 -20.6015625 510.6484375 C-21.51790466 510.64911224 -22.43424683 510.64978699 -23.37835693 510.65048218 C-37.44089341 510.63404142 -51.07049606 510.04972533 -64.9140625 507.3984375 C-65.81543945 507.23746582 -66.71681641 507.07649414 -67.64550781 506.91064453 C-106.96108007 499.79281658 -144.50632156 483.11462772 -175.9140625 458.3984375 C-176.8834375 457.64046875 -177.8528125 456.8825 -178.8515625 456.1015625 C-194.23141704 443.78020176 -208.8110846 429.96875501 -220.9140625 414.3984375 C-221.70167969 413.41617187 -222.48929688 412.43390625 -223.30078125 411.421875 C-247.07576475 381.5305057 -263.3601428 346.5415267 -272.1640625 309.4609375 C-272.39834961 308.48664795 -272.63263672 307.5123584 -272.87402344 306.50854492 C-276.97506567 288.35834401 -278.47264598 270.2795369 -278.3515625 251.7109375 C-278.34852112 250.71229675 -278.34547974 249.71365601 -278.34234619 248.68475342 C-278.27027885 232.61501833 -277.35379001 217.14630564 -273.9140625 201.3984375 C-273.69443848 200.37218262 -273.47481445 199.34592773 -273.24853516 198.28857422 C-260.86508145 141.857535 -229.46120053 86.63203503 -182.9140625 51.3984375 C-182.37523437 50.98319824 -181.83640625 50.56795898 -181.28125 50.14013672 C-142.0870545 20.00850044 -95.05951743 2.09230848 -45.3515625 2.2734375 C-43.51742798 2.27307495 -43.51742798 2.27307495 -41.64624023 2.27270508 C-33.84819779 2.29888506 -26.09288851 2.50928115 -18.33178711 3.30615234 C-15.17548989 3.57206892 -13.37989862 3.7088754 -10.69360352 1.91870117 C-7.11307877 -0.03965874 -3.97586654 -0.03255345 0 0 Z M-42.7265625 85.5234375 C-43.91564209 85.74862061 -45.10472168 85.97380371 -46.32983398 86.20581055 C-72.77855391 91.3931242 -97.25176136 100.66385656 -117.9140625 118.3984375 C-119.16316406 119.46384766 -119.16316406 119.46384766 -120.4375 120.55078125 C-151.25573651 147.52859136 -168.45641037 186.7467776 -175.9140625 226.3984375 C-176.14738281 227.61015625 -176.38070312 228.821875 -176.62109375 230.0703125 C-184.54507481 277.72821298 -172.92946573 328.93283776 -145.1640625 368.3984375 C-135.05587179 382.42641254 -123.55100256 394.76476721 -109.9140625 405.3984375 C-108.89699219 406.19378906 -107.87992187 406.98914063 -106.83203125 407.80859375 C-74.25455723 432.52966878 -31.89035653 443.89789533 8.67333984 438.62988281 C40.73576939 433.63402933 69.0057481 418.96715456 92.0859375 396.3984375 C92.81039063 395.73585938 93.53484375 395.07328125 94.28125 394.390625 C120.4094975 369.95489556 132.7497586 332.23723462 134.21386719 297.35009766 C135.02436861 264.5247899 130.46742121 232.54970063 120.0859375 201.3984375 C119.75239258 200.38789307 119.75239258 200.38789307 119.41210938 199.35693359 C110.05562549 171.51790281 95.20587724 146.73441755 75.0859375 125.3984375 C74.46460938 124.72425781 73.84328125 124.05007812 73.203125 123.35546875 C52.13420191 101.27276903 23.63779858 90.25306373 -6.0546875 86.01171875 C-9.9140625 85.3984375 -9.9140625 85.3984375 -11.9140625 84.3984375 C-13.26153334 84.16768668 -14.61783815 83.98690687 -15.9765625 83.8359375 C-16.68941406 83.75214844 -17.40226563 83.66835937 -18.13671875 83.58203125 C-26.62029981 83.02123194 -34.37142207 83.93596675 -42.7265625 85.5234375 Z " fill="#000000" transform="translate(277.9140625,0.6015625)"/>
</svg>
