<?xml version="1.0" encoding="UTF-8"?>
<svg version="1.1" xmlns="http://www.w3.org/2000/svg" width="512" height="512">
<path d="M0 0 C7.33785183 5.11620237 14.0354951 11.08250222 20.75488281 16.97216797 C22.07574219 18.10830629 23.43468052 19.19993202 24.80078125 20.28125 C30.95689893 25.19452883 35.04489522 31.4127327 35.99609375 39.37109375 C36.09921875 40.67046875 36.20234375 41.96984375 36.30859375 43.30859375 C36.64727024 44.68749087 37.00241545 46.06241348 37.37109375 47.43359375 C41.66431465 66.40897469 32.8067959 80.02999819 23.14575195 95.41503906 C14.31138535 109.27862627 4.6348546 122.52484291 -5.69140625 135.30859375 C-6.4390625 136.23929688 -7.18671875 137.17 -7.95703125 138.12890625 C-10.1812868 140.87322156 -12.42921496 143.59546732 -14.69140625 146.30859375 C-15.11969727 146.82325195 -15.54798828 147.33791016 -15.98925781 147.86816406 C-22.66943001 155.86622584 -29.63165959 163.55205275 -36.82055664 171.09619141 C-40.17213325 174.61494068 -43.46048057 178.16854341 -46.67578125 181.8125 C-52.73225639 188.57071501 -59.17797189 194.94462353 -65.6027832 201.3503418 C-67.75653147 203.49871241 -69.90485851 205.65240069 -72.05273438 207.80664062 C-73.44368979 209.19693543 -74.83495528 210.58692011 -76.2265625 211.9765625 C-76.85699966 212.6090239 -77.48743683 213.24148529 -78.13697815 213.89311218 C-81.93040097 217.666965 -85.84792672 221.23632542 -89.89573669 224.73530579 C-92.06360785 226.63470069 -94.10891693 228.62816602 -96.12890625 230.68359375 C-96.87914062 231.4415625 -97.629375 232.19953125 -98.40234375 232.98046875 C-99.15773438 233.74875 -99.913125 234.51703125 -100.69140625 235.30859375 C-105.56799157 240.26839725 -110.48211117 245.06368719 -115.7578125 249.59765625 C-119.05490229 252.51508115 -122.11064509 255.66624152 -125.19140625 258.80859375 C-129.66905464 263.34001606 -134.13062288 267.79016314 -139.078125 271.81640625 C-141.20927746 273.78759327 -142.91926527 276.01523483 -144.69140625 278.30859375 C-144.15249756 278.84226562 -143.61358887 279.3759375 -143.05834961 279.92578125 C-140.57914389 282.38398801 -138.10401026 284.84625741 -135.62890625 287.30859375 C-134.78134766 288.14777344 -133.93378906 288.98695313 -133.06054688 289.8515625 C-129.36164219 293.5361857 -125.71023037 297.21069638 -122.3203125 301.18359375 C-117.44003161 306.86952416 -112.02005941 312.04813176 -106.69140625 317.30859375 C-94.55990861 329.28484371 -94.55990861 329.28484371 -89.31054688 335.43554688 C-86.30234726 338.91547863 -83.10726053 342.22266495 -79.94140625 345.55859375 C-78.52814919 347.05552085 -77.11539068 348.55291879 -75.703125 350.05078125 C-75.01911621 350.77620117 -74.33510742 351.50162109 -73.63037109 352.24902344 C-66.78934229 359.51557078 -60.13895893 366.86114911 -53.88671875 374.6484375 C-51.65548673 377.35211901 -49.32172423 379.92330781 -46.94140625 382.49609375 C-38.71418973 391.59763118 -33.92287584 400.96690385 -34.34765625 413.515625 C-35.52897456 423.11383624 -40.10443275 431.85630539 -47.7109375 437.91796875 C-49.06357942 438.88007734 -50.42162155 439.83464226 -51.78515625 440.78125 C-53.86080365 442.44431994 -55.21592983 444.14479182 -56.75390625 446.30859375 C-61.98281071 453.65429332 -67.98186129 457.81824985 -76.69140625 460.30859375 C-79.02447588 460.61991976 -81.34073021 460.80124002 -83.6875 460.97265625 C-85.96525073 461.21389122 -85.96525073 461.21389122 -88.50390625 463.18359375 C-94.60206699 467.24903424 -101.82563703 468.85227648 -109.12890625 468.18359375 C-139.62560263 461.67709963 -170.52861707 433.29035988 -193.69140625 413.30859375 C-194.43132812 412.67050781 -195.17125 412.03242188 -195.93359375 411.375 C-197.86307227 409.69736105 -199.77998734 408.0067712 -201.69140625 406.30859375 C-202.39910156 405.68210937 -203.10679687 405.055625 -203.8359375 404.41015625 C-214.72680223 394.69326533 -225.5205738 384.78053637 -235.69140625 374.30859375 C-240.46170285 378.19139331 -244.80936484 382.37757936 -249.12890625 386.74609375 C-253.21643985 390.874711 -257.32409262 394.8915169 -261.7578125 398.65234375 C-263.9947756 400.56844952 -266.14944203 402.56372231 -268.31640625 404.55859375 C-274.51302459 410.14602073 -281.0621805 415.2496014 -287.69140625 420.30859375 C-288.60792969 421.00984375 -289.52445313 421.71109375 -290.46875 422.43359375 C-311.45064816 438.08325012 -342.26655039 459.13230952 -369.69140625 456.30859375 C-379.37704285 454.49954096 -386.71777336 447.00184417 -393.95166016 440.79003906 C-395.31400991 439.62995791 -396.70639408 438.50513004 -398.109375 437.39453125 C-408.98415223 428.64986502 -420.8266729 413.44587447 -422.69140625 399.30859375 C-423.79577756 380.7254226 -417.84819531 366.45702697 -405.69140625 352.30859375 C-405.10617187 351.61378906 -404.5209375 350.91898437 -403.91796875 350.203125 C-393.37536918 338.09788715 -381.89939226 326.2117235 -369.2265625 316.33984375 C-366.25593042 313.95967629 -363.47310824 311.40316789 -360.69140625 308.80859375 C-356.98322331 305.3565369 -353.20631242 302.04334427 -349.25390625 298.87109375 C-342.77671055 293.66282235 -336.74505975 287.99652573 -330.69140625 282.30859375 C-335.52054311 276.33571395 -340.92964947 271.37143921 -346.69140625 266.30859375 C-348.36013284 264.81088572 -350.02682344 263.31090591 -351.69140625 261.80859375 C-354.16642859 259.58030261 -356.64212379 257.35280535 -359.12109375 255.12890625 C-364.64912757 250.16603883 -370.14017354 245.16422074 -375.609375 240.13671875 C-377.66840771 238.24452853 -379.73379617 236.35967105 -381.8046875 234.48046875 C-387.12860438 229.64130939 -392.35561554 224.74473537 -397.36328125 219.57421875 C-399.34822661 217.64256051 -401.37505767 215.84776384 -403.4765625 214.046875 C-407.72441675 210.35673022 -411.56072163 206.37368052 -415.37890625 202.24609375 C-416.06734619 201.5072998 -416.75578613 200.76850586 -417.46508789 200.00732422 C-418.86956835 198.49934209 -420.27249858 196.98991455 -421.67382812 195.47900391 C-423.5411911 193.47018774 -425.41849565 191.47138742 -427.30078125 189.4765625 C-433.73173418 182.64460326 -439.88356751 175.68611863 -445.69140625 168.30859375 C-446.47902344 167.32761719 -447.26664062 166.34664062 -448.078125 165.3359375 C-454.91250413 156.73358114 -460.9857845 147.69389578 -466.69140625 138.30859375 C-467.07554687 137.68807129 -467.4596875 137.06754883 -467.85546875 136.42822266 C-473.27871638 127.50083525 -475.32238147 119.72806137 -473.69140625 109.30859375 C-468.69286805 92.44148855 -451.39561046 78.66929283 -436.62890625 70.49609375 C-432.70555885 68.21920571 -430.10924762 65.71263289 -427.19140625 62.24609375 C-422.26128852 56.42118597 -416.83584062 53.69007187 -409.69140625 51.30859375 C-395.99707437 50.39329136 -387.35047391 52.71027917 -376.69140625 61.30859375 C-374.85043321 63.01375731 -373.10281431 64.77042401 -371.37109375 66.5859375 C-369.71361471 68.28581717 -367.99438754 69.82733938 -366.19140625 71.37109375 C-362.13206016 74.86971305 -358.22488752 78.51872662 -354.31640625 82.18359375 C-349.32789368 86.85932965 -344.30441765 91.48570277 -339.20703125 96.04296875 C-335.65871827 99.23865435 -332.15562899 102.4823464 -328.65014648 105.72485352 C-324.98429693 109.11561661 -321.31116496 112.49815685 -317.62890625 115.87109375 C-317.13720947 116.32154053 -316.6455127 116.7719873 -316.13891602 117.23608398 C-314.65658309 118.59377338 -313.1740363 119.95122882 -311.69140625 121.30859375 C-303.88862083 128.45213393 -296.10249989 135.61326785 -288.33251953 142.79248047 C-286.16050183 144.79906034 -283.98764552 146.80473067 -281.81469727 148.81030273 C-280.73047517 149.81103533 -279.64632831 150.81184944 -278.56225586 151.81274414 C-275.8799237 154.28920701 -273.19675149 156.76474647 -270.51171875 159.23828125 C-264.06467621 165.17975084 -257.64462017 171.14903259 -251.24047852 177.13671875 C-245.42685709 182.56691601 -239.56782251 187.9465007 -233.69140625 193.30859375 C-228.62954822 189.12705885 -223.99498447 184.67203382 -219.4140625 179.96875 C-217.3115071 177.91445986 -215.19544669 175.9973104 -212.96875 174.0859375 C-208.13518568 169.89677279 -203.67594008 165.36511047 -199.19140625 160.80859375 C-197.57936212 159.17067411 -195.96480764 157.53522109 -194.34765625 155.90234375 C-193.64447266 155.18755859 -192.94128906 154.47277344 -192.21679688 153.73632812 C-190.1949791 151.79269356 -188.14631185 149.9610596 -186.02172852 148.13452148 C-181.04393422 143.80940786 -176.40577765 139.16651984 -171.75 134.5 C-170.82349136 133.57444809 -169.89698273 132.64889618 -168.94239807 131.69529724 C-166.99358264 129.7479452 -165.04655888 127.79882462 -163.10083008 125.84838867 C-160.62776764 123.3696298 -158.15024092 120.89538944 -155.67133999 118.42247105 C-153.27844424 116.0340923 -150.88940307 113.64187295 -148.5 111.25 C-147.18097939 109.93401573 -147.18097939 109.93401573 -145.83531189 108.59144592 C-141.44811865 104.18768176 -137.21654394 99.71754685 -133.16419983 95.00376892 C-131.37234832 92.94136029 -129.48453521 91.00338122 -127.53515625 89.08984375 C-126.82230469 88.38472656 -126.10945313 87.67960937 -125.375 86.953125 C-123.91927083 85.5234375 -122.46354167 84.09375 -121.0078125 82.6640625 C-116.97318135 78.67320673 -113.15168887 74.59207366 -109.45117188 70.29101562 C-105.72748716 66.09618768 -101.65485086 62.23442448 -97.65234375 58.30859375 C-93.72598862 54.42771763 -90.00033001 50.45114887 -86.39746094 46.26855469 C-83.62081578 43.07867098 -80.715579 40.01177801 -77.81640625 36.93359375 C-73.14272467 31.94956493 -68.52216012 26.92691731 -63.96484375 21.8359375 C-59.72601866 17.12370411 -55.43761842 12.45947353 -51.10644531 7.83203125 C-49.81529436 6.44197225 -48.54513715 5.03248835 -47.27734375 3.62109375 C-34.1458357 -10.48483716 -15.71638513 -9.87691547 0 0 Z " fill="#000000" transform="translate(473.69140625,25.69140625)"/>
</svg>
